<svg width="174" height="32" viewBox="0 0 174 32" fill="none" xmlns="http://www.w3.org/2000/svg">
<path d="M2.49 28.2416H0V7.24155H2.49V16.9016H12.24V7.24155H14.73V28.2416H12.24V17.2016H2.49V28.2416Z" fill="#2D521E"/>
<path d="M17.4316 18.2516C17.4316 14.6116 18.3116 11.8516 20.0716 9.97155C21.8516 8.07155 24.1316 7.12155 26.9116 7.12155C29.6916 7.12155 31.9016 7.94155 33.5416 9.58155C35.2016 11.2216 36.0316 13.8416 36.0316 17.4416C36.0316 21.0416 35.1516 23.7616 33.3916 25.6016C31.6316 27.4416 29.2816 28.3616 26.3416 28.3616C23.8016 28.3616 21.7216 27.6316 20.1016 26.1716C19.2616 25.4116 18.6016 24.3616 18.1216 23.0216C17.6616 21.6616 17.4316 20.0716 17.4316 18.2516ZM26.8216 7.42155C24.8016 7.42155 23.1416 8.32155 21.8416 10.1216C20.5616 11.9216 19.9216 14.5616 19.9216 18.0416C19.9216 21.5216 20.5316 24.0616 21.7516 25.6616C22.9716 27.2616 24.5916 28.0616 26.6116 28.0616C28.6516 28.0616 30.3116 27.1616 31.5916 25.3616C32.8916 23.5416 33.5416 20.9116 33.5416 17.4716C33.5416 14.0116 32.9216 11.4716 31.6816 9.85155C30.4616 8.23155 28.8416 7.42155 26.8216 7.42155Z" fill="#2D521E"/>
<path d="M50.7305 28.2416H39.3305V7.24155H41.8205V27.9416H50.7305V28.2416Z" fill="#2D521E"/>
<path d="M53.7445 7.54155V7.24155H59.0845V7.54155H57.6145V27.9416H59.0845V28.2416H53.7445V27.9416H55.1245V7.54155H53.7445Z" fill="#2D521E"/>
<path d="M101.555 7.27155C102.435 7.23155 103.295 7.21155 104.135 7.21155C104.995 7.21155 105.895 7.30155 106.835 7.48155C107.795 7.66155 108.735 8.00155 109.655 8.50155C110.595 8.98155 111.385 9.61155 112.025 10.3916C112.685 11.1516 113.215 12.1616 113.615 13.4216C114.015 14.6816 114.215 16.2116 114.215 18.0116C114.215 19.8116 113.915 21.4316 113.315 22.8716C112.735 24.2916 111.935 25.3816 110.915 26.1416C108.935 27.6216 106.545 28.3616 103.745 28.3616C102.765 28.3616 101.735 28.3216 100.655 28.2416H99.1547V7.27155H101.555ZM101.645 28.0016C102.065 28.0416 102.595 28.0616 103.235 28.0616C103.875 28.0616 104.355 28.0516 104.675 28.0316C104.995 28.0116 105.435 27.9316 105.995 27.7916C106.555 27.6316 107.075 27.4216 107.555 27.1616C108.035 26.9016 108.535 26.5216 109.055 26.0216C109.595 25.5016 110.055 24.8916 110.435 24.1916C111.295 22.5516 111.725 20.4116 111.725 17.7716C111.725 15.8916 111.495 14.2716 111.035 12.9116C110.575 11.5316 110.045 10.5116 109.445 9.85155C108.865 9.19155 108.155 8.67155 107.315 8.29155C106.475 7.89155 105.805 7.66155 105.305 7.60155C104.805 7.54155 104.225 7.51155 103.565 7.51155C102.905 7.51155 102.265 7.54155 101.645 7.60155V28.0016Z" fill="#2D521E"/>
<path d="M115.776 28.2416H115.416L124.386 7.24155L124.716 7.09155L132.276 28.2416H129.726L127.386 21.6416H118.626L115.776 28.2416ZM123.456 10.4816L118.746 21.3416H127.296L123.456 10.4816Z" fill="#2D521E"/>
<path d="M135.278 7.54155V7.24155H140.618V7.54155H139.148V27.9416H140.618V28.2416H135.278V27.9416H136.658V7.54155H135.278Z" fill="#2D521E"/>
<path d="M144.559 7.54155V7.24155H156.799V7.54155L146.209 27.9416H155.239C155.819 27.9416 156.349 27.8416 156.829 27.6416C157.309 27.4416 157.629 27.1516 157.789 26.7716L158.029 26.8916C157.989 26.9916 157.919 27.1216 157.819 27.2816C157.739 27.4216 157.469 27.6216 157.009 27.8816C156.549 28.1216 155.989 28.2416 155.329 28.2416H143.779V27.9416L154.309 7.54155H144.559Z" fill="#2D521E"/>
<path d="M173.116 7.24155V7.54155H163.666V16.5416H172.426V16.8416H163.666V27.9416H173.776V28.2416H161.176V7.24155H173.116Z" fill="#2D521E"/>
<path d="M82.8874 11.7468V31.18L79.101 31.18V11.6523M83.9426 10.6763C84.9254 10.7288 87.1517 11.2054 88.1945 12.692C89.2373 14.1786 89.4773 16.692 89.467 17.7629M83.3904 6.76561C83.7393 5.83171 84.8653 3.82525 86.5784 3.27056C88.2914 2.71588 90.7234 3.25014 91.7252 3.5866M70.2582 4.06639C71.0961 3.54241 73.1945 2.64971 74.8853 3.27078C76.5761 3.89185 78.1819 5.82081 78.7734 6.70765M72.6206 17.6008C72.4533 16.6166 72.4182 14.3078 73.6157 12.9465C74.8132 11.5852 77.1752 10.791 78.2065 10.564M79.1627 14.55H80.4655M79.1627 17.7627H80.4655M79.1627 20.9754H80.4655M79.1627 24.1251H80.4655M79.1627 27.2745H80.4655M82.8247 16.125H81.5219M82.8247 19.3373H81.5219M82.8247 22.55H81.5219M82.8247 25.6994H81.5219M82.8247 28.8494H81.5219M81.1487 9.16445L89.7456 21.3535C90.8112 19.6422 92.303 15.3692 89.7456 11.9676C87.1883 8.56603 82.9487 8.68151 81.1487 9.16445ZM81.0999 8.99051L95.0899 4.18208C93.7858 2.65032 90.1899 -0.0393197 86.2398 1.4562C82.2897 2.95173 81.1673 7.10221 81.0999 8.99051ZM80.8514 9.14639L72.2544 21.3354C71.1888 19.6241 69.697 15.3511 72.2544 11.9495C74.8118 8.54796 79.0513 8.66345 80.8514 9.14639ZM80.9001 8.97244L66.9101 4.16402C68.2143 2.63225 71.8101 -0.0573861 75.7602 1.43814C79.7104 2.93366 80.8327 7.08414 80.9001 8.97244Z" stroke="#2D521E" stroke-linecap="round"/>
</svg>
